PathFileType	4	(X/Y/Z)	/Users/itak/Documents/Research/Walk-IL/dataset/trc/00276_00010.trc
DataRate	CameraRate	NumFrames	NumMarkers	Units	OrigDataRate	OrigDataStartFrame	OrigNumFrames
100.000000	100.000000	4	54	mm	100.000000	0	493
Frame#	Time	RPSI			LPSI			L3			STRN			T10			C7			CLAV			RBAK			LBAK			LSHO			LUPA			LAEL			LAOL			LWTS			LWPS			LFRA			LHPS			LHTS			RSHO			RUPA			RAEL			RAOL			RWTS			RWPS			RFRA			RIFD			RHTS			RHPS			RBHD			LFHD			RFHD			LBHD			LHIP			RHIP			RASI			LKNE			LTHI			LANK			LTIP			LTOE			LMT1			LMT5			LHEE			RKNE			RTHI			RANK			RTIP			RTOE			RMT1			RMT5			RHEE			LIFD			LASI			*53			
		X1	Y1	Z1	X2	Y2	Z2	X3	Y3	Z3	X4	Y4	Z4	X5	Y5	Z5	X6	Y6	Z6	X7	Y7	Z7	X8	Y8	Z8	X9	Y9	Z9	X10	Y10	Z10	X11	Y11	Z11	X12	Y12	Z12	X13	Y13	Z13	X14	Y14	Z14	X15	Y15	Z15	X16	Y16	Z16	X17	Y17	Z17	X18	Y18	Z18	X19	Y19	Z19	X20	Y20	Z20	X21	Y21	Z21	X22	Y22	Z22	X23	Y23	Z23	X24	Y24	Z24	X25	Y25	Z25	X26	Y26	Z26	X27	Y27	Z27	X28	Y28	Z28	X29	Y29	Z29	X30	Y30	Z30	X31	Y31	Z31	X32	Y32	Z32	X33	Y33	Z33	X34	Y34	Z34	X35	Y35	Z35	X36	Y36	Z36	X37	Y37	Z37	X38	Y38	Z38	X39	Y39	Z39	X40	Y40	Z40	X41	Y41	Z41	X42	Y42	Z42	X43	Y43	Z43	X44	Y44	Z44	X45	Y45	Z45	X46	Y46	Z46	X47	Y47	Z47	X48	Y48	Z48	X49	Y49	Z49	X50	Y50	Z50	X51	Y51	Z51	X52	Y52	Z52	X53	Y53	Z53	X54	Y54	Z54	

1	0	863.3422241210938	996.429443359375	77.09333801269531	867.4222412109375	988.1990356445312	-97.53086090087891	884.20556640625	1063.887084960938	-15.23806285858154	1126.36181640625	1248.27978515625	-17.04819869995117	867.7334594726562	1176.538940429688	-19.23283958435059	897.9044799804688	1421.093994140625	-39.10711288452148	1061.983032226562	1348.976196289062	-24.27403259277344	850.5612182617188	1284.476318359375	41.24160766601562	889.089599609375	1384.019897460938	-143.3255462646484	982.3200073242188	1394.878540039062	-190.3176422119141	965.4296875	1276.596069335938	-268.4990539550781	981.4810180664062	1072.709594726562	-283.7559509277344	911.875732421875	1058.413208007812	-233.1901092529297	1051.14208984375	847.895751953125	-223.0732421875	1028.7080078125	838.0169677734375	-290.45654296875	997.5122680664062	968.280517578125	-289.9239501953125	1030.029052734375	750.1436767578125	-288.17626953125	1074.533935546875	748.731689453125	-239.4604797363281	963.4556884765625	1407.15625	123.4802932739258	957.7047119140625	1351.077270507812	191.8529052734375	955.9812622070312	1089.107788085938	255.2679138183594	920.083251953125	1075.9814453125	166.3834838867188	1061.980590820312	867.2236938476562	209.5213775634766	1022.920166015625	864.1494140625	284.5545654296875	983.0538940429688	1022.652282714844	269.9072570800781	1071.661865234375	683.3934326171875	212.5943450927734	1095.320434570312	753.251708984375	228.45361328125	1049.690551757812	752.4660034179688	281.7440490722656	918.286865234375	1577.96240234375	44.78820037841797	1088.085815429688	1625.442138671875	-72.82722473144531	1088.114624023438	1618.421020507812	19.43966102600098	919.9949340820312	1579.358520507812	-101.257438659668	936.1704711914062	940.6630859375	-191.5603637695312	962.6912231445312	947.5485229492188	181.1759796142578	1083.609008789062	954.554443359375	112.2436752319336	1017.67138671875	476.383056640625	-164.2657623291016	1004.08984375	617.81103515625	-185.3094635009766	898.467041015625	39.18542861938477	-142.5832366943359	953.4832153320312	252.5267333984375	-163.7392730712891	1106.843139648438	27.69018745422363	-82.82035827636719	1034.289916992188	20.50846290588379	-43.51505279541016	1022.057434082031	34.72130584716797	-153.9358367919922	853.0578002929688	32.18056869506836	-83.50281524658203	1008.582153320312	474.1721496582031	146.1999206542969	1029.502319335938	737.0328369140625	180.3012084960938	910.0902099609375	36.14881134033203	117.986930847168	1009.188842773438	348.0292053222656	133.2225799560547	1108.650024414062	32.99672698974609	73.77896118164062	1052.84765625	30.17146301269531	31.75366020202637	1013.612182617188	27.44455528259277	142.8645172119141	860.5808715820312	33.87780380249023	65.47284698486328	1048.340942382812	660.1785278320312	-223.5911102294922	1074.432006835938	950.9578247070312	-139.322021484375	nan	nan	nan	
2	0.01	863.3770751953125	996.404052734375	77.18837738037109	867.4417114257812	988.2449951171875	-97.38541412353516	884.3689575195312	1063.928955078125	-15.07589340209961	1126.448120117188	1248.306762695312	-16.91482162475586	867.733154296875	1176.588500976562	-19.05731391906738	897.9738159179688	1421.161743164062	-38.96514892578125	1062.06640625	1349.021484375	-24.14724731445312	850.6746215820312	1284.5458984375	41.41021347045898	889.2108154296875	1384.05712890625	-143.1987915039062	982.4232177734375	1394.918701171875	-190.1605834960938	965.526611328125	1276.613891601562	-268.3147583007812	981.494384765625	1072.695190429688	-283.4195556640625	911.8978271484375	1058.421508789062	-232.9235687255859	1051.320190429688	847.9539794921875	-222.5074462890625	1028.950805664062	838.0394897460938	-289.9516906738281	997.594970703125	968.2556762695312	-289.540771484375	1030.300659179688	750.133056640625	-287.5731201171875	1074.871826171875	748.890625	-238.9429626464844	963.5693969726562	1407.2275390625	123.6105880737305	957.8095703125	1351.158447265625	191.9946746826172	956.0379638671875	1089.218017578125	255.4670562744141	920.0892333984375	1076.066650390625	166.5703582763672	1062.004028320312	867.288330078125	209.8337554931641	1023.06591796875	864.2722778320312	284.9393615722656	983.1219482421875	1022.775634765625	270.1665954589844	1071.465454101562	683.473876953125	212.8979339599609	1095.277587890625	753.2982177734375	228.8018951416016	1049.644775390625	752.5532836914062	282.0820617675781	918.4027709960938	1577.982299804688	44.942626953125	1088.194702148438	1625.423950195312	-72.75053405761719	1088.282592773438	1618.339599609375	19.5894718170166	920.1007690429688	1579.3955078125	-101.107307434082	936.2613525390625	940.6880493164062	-191.4058532714844	962.69775390625	947.5531616210938	181.2522735595703	1083.61767578125	954.5352783203125	112.310302734375	1017.615661621094	476.3910522460938	-164.1508941650391	1003.975341796875	617.810302734375	-185.3164215087891	898.470458984375	39.20503234863281	-142.5833892822266	953.4398803710938	252.55859375	-163.7008972167969	1106.860229492188	27.67334365844727	-82.80759429931641	1034.290649414062	20.50734901428223	-43.51471710205078	1022.061645507812	34.72952651977539	-153.9275207519531	853.0599365234375	32.1972770690918	-83.50584411621094	1008.615966796875	474.1644287109375	146.2382354736328	1029.55078125	736.9959106445312	180.3463745117188	910.1094360351562	36.17021179199219	118.0264434814453	1009.220703125	348.046875	133.242919921875	1108.651123046875	32.98770141601562	73.77408599853516	1052.859497070312	30.16536140441895	31.76338386535645	1013.620727539062	27.46377944946289	142.8494873046875	860.5618286132812	33.88720321655273	65.466064453125	1048.747924804688	660.308349609375	-222.9391174316406	1074.439697265625	950.9990234375	-139.2345581054688	nan	nan	nan	
3	0.02	863.4208374023438	996.3692016601562	77.31771850585938	867.4561767578125	988.30517578125	-97.19983673095703	884.5511474609375	1063.979125976562	-14.87264347076416	1126.553100585938	1248.338989257812	-16.74219703674316	867.7360229492188	1176.65576171875	-18.83832168579102	898.0658569335938	1421.24658203125	-38.7815055847168	1062.172119140625	1349.07763671875	-23.98388862609863	850.8072509765625	1284.634643554688	41.62135696411133	889.36376953125	1384.101806640625	-143.0396270751953	982.552490234375	1394.966918945312	-189.9675750732422	965.6416625976562	1276.62939453125	-268.0787353515625	981.5302734375	1072.678833007812	-283.0069274902344	911.93212890625	1058.4462890625	-232.5738372802734	1051.564208984375	848.0689086914062	-221.8148193359375	1029.255615234375	838.06005859375	-289.2999877929688	997.7198486328125	968.2407836914062	-289.0531616210938	1030.6689453125	750.1332397460938	-286.8050231933594	1075.306762695312	749.0823974609375	-238.2580871582031	963.7050170898438	1407.317626953125	123.7770156860352	957.9434814453125	1351.263916015625	192.1791839599609	956.0991821289062	1089.358154296875	255.7211456298828	920.1071166992188	1076.17431640625	166.8249816894531	1062.04833984375	867.3811645507812	210.2386932373047	1023.219604492188	864.4301147460938	285.4122314453125	983.197265625	1022.928833007812	270.4925537109375	1071.254638671875	683.5851440429688	213.2933807373047	1095.24462890625	753.3709716796875	229.2547454833984	1049.616455078125	752.673828125	282.5185546875	918.5366821289062	1578.012084960938	45.13377380371094	1088.326171875	1625.3955078125	-72.63687896728516	1088.477294921875	1618.248413085938	19.77264213562012	920.2294311523438	1579.44091796875	-100.9175338745117	936.3509521484375	940.7245483398438	-191.2184906005859	962.7029418945312	947.5572509765625	181.3465270996094	1083.630981445312	954.5120849609375	112.3995666503906	1017.54541015625	476.3984375	-164.0210113525391	1004.081481933594	617.7626342773438	-185.2563171386719	898.4745483398438	39.22689437866211	-142.5819091796875	953.3815307617188	252.5983123779297	-163.6497650146484	1106.878662109375	27.65439796447754	-82.79344940185547	1034.291259765625	20.50479698181152	-43.51346588134766	1022.067565917969	34.73966217041016	-153.9176177978516	853.0610961914062	32.21331405639648	-83.50631713867188	1008.658996582031	474.1541137695312	146.2882690429688	1029.612426757812	736.9567260742188	180.3932647705078	910.130859375	36.19269561767578	118.0647659301758	1009.271545410156	348.0706481933594	133.2695922851562	1108.655639648438	32.97563552856445	73.76776123046875	1052.870849609375	30.16202354431152	31.77381134033203	1013.63037109375	27.48627090454102	142.8316650390625	860.53662109375	33.89953231811523	65.45671081542969	1049.280639648438	660.4820556640625	-222.1009063720703	1074.448486328125	951.0499877929688	-139.120849609375	nan	nan	nan	
4	0.03	863.476318359375	996.3273315429688	77.48187255859375	867.4631958007812	988.3777465820312	-96.98018646240234	884.7335815429688	1064.03466796875	-14.63743209838867	1126.670532226562	1248.373779296875	-16.53524780273438	867.7442626953125	1176.739013671875	-18.58751678466797	898.1791381835938	1421.3447265625	-38.56148147583008	1062.29638671875	1349.141723632812	-23.78812789916992	850.9515991210938	1284.739379882812	41.86666870117188	889.5414428710938	1384.151733398438	-142.8538208007812	982.70263671875	1395.021118164062	-189.7472991943359	965.7670288085938	1276.640869140625	-267.79931640625	981.597412109375	1072.663330078125	-282.5384521484375	911.9827880859375	1058.4931640625	-232.1482543945312	1051.878295898438	848.254638671875	-221.0302429199219	1029.612915039062	838.0762939453125	-288.5219421386719	997.8892211914062	968.2420654296875	-288.4778137207031	1031.1259765625	750.1464233398438	-285.8944702148438	1075.822021484375	749.2943725585938	-237.4166412353516	963.85400390625	1407.422607421875	123.973876953125	958.1018676757812	1351.39111328125	192.4020690917969	956.158447265625	1089.523803710938	256.0227355957031	920.1444702148438	1076.298095703125	167.1444396972656	1062.119750976562	867.5046997070312	210.7259063720703	1023.3642578125	864.618408203125	285.9501953125	983.2747192382812	1023.106262207031	270.8740844726562	1071.057739257812	683.729736328125	213.7724456787109	1095.23388671875	753.4742431640625	229.8000640869141	1049.620483398438	752.827880859375	283.0409851074219	918.6804809570312	1578.05224609375	45.35337448120117	1088.473876953125	1625.357177734375	-72.48571014404297	1088.684692382812	1618.154663085938	19.9799919128418	920.3738403320312	1579.4921875	-100.6946029663086	936.4300537109375	940.7714233398438	-191.0085906982422	962.712158203125	947.5577392578125	181.4554138183594	1083.650756835938	954.4864501953125	112.5116806030273	1017.461669921875	476.4049072265625	-163.8854064941406	1004.457336425781	617.6625366210938	-185.1108551025391	898.4790649414062	39.24840545654297	-142.5777740478516	953.309326171875	252.6436614990234	-163.5868835449219	1106.895874023438	27.63517951965332	-82.77953338623047	1034.291625976562	20.50015830993652	-43.51068496704102	1022.075439453125	34.75104522705078	-153.9066314697266	853.0608520507812	32.22658920288086	-83.50259399414062	1008.7099609375	474.1418762207031	146.3495330810547	1029.685302734375	736.918701171875	180.4376373291016	910.152587890625	36.21346282958984	118.0974655151367	1009.339721679688	348.0997009277344	133.301513671875	1108.6640625	32.96076583862305	73.76050567626953	1052.88037109375	30.16252326965332	31.78434181213379	1013.639892578125	27.50795555114746	142.8137969970703	860.5035400390625	33.91558074951172	65.44460296630859	1049.927490234375	660.6889038085938	-221.1013641357422	1074.457275390625	951.1082763671875	-138.9843597412109	nan	nan	nan	
